<mxfile host="app.diagrams.net" modified="2023-07-13T17:15:52.010Z" agent="Mozilla/5.0 (X11; Linux x86_64; rv:103.0) Gecko/20100101 Firefox/103.0" version="21.6.2" etag="xs_BooO4L6qUxf9Q644U" type="github">
  <diagram name="Page-1" id="uKCgYnrP4xd7b6KJ01bT">
    <mxGraphModel>
      <root>
        <mxCell id="0" />
        <mxCell id="1" parent="0" />
      </root>
    </mxGraphModel>
  </diagram>
</mxfile>
